<svg width="406" height="158" viewBox="0 0 406 158" fill="none" xmlns="http://www.w3.org/2000/svg">
<path fill-rule="evenodd" clip-rule="evenodd" d="M214.804 67.9653C214.815 69.1347 214.826 70.3511 214.826 71.6307H214.872C217.81 69.8976 220.709 68.2097 223.573 66.5421C231.178 62.1142 238.535 57.831 245.696 53.2283C247.501 52.1104 248.519 48.756 248.751 46.3333C249.078 42.7056 249.012 39.0312 248.945 35.3431C248.917 33.8211 248.89 32.2969 248.89 30.7727C248.89 27.0922 247.409 24.2037 244.215 22.3401C232.182 15.3053 220.102 8.31697 208.023 1.37528C204.968 -0.395084 201.821 -0.48826 198.766 1.2821L198.759 1.28632C186.543 8.2732 174.327 15.2601 162.157 22.2469C158.686 24.2037 157.252 27.3251 157.252 31.2851C157.344 35.8974 157.39 40.463 157.252 45.0752C157.159 49.6411 159.01 52.9489 162.991 55.1384L182.151 65.9002C184.766 67.3539 187.347 68.8403 190.229 70.4996C190.765 70.8083 191.312 71.123 191.87 71.4445C191.87 70.2759 191.887 69.1561 191.902 68.0732C191.939 65.4855 191.974 63.1076 191.778 60.7756C191.639 59.4712 190.76 57.887 189.695 57.1418C187.731 55.7806 185.633 54.5999 183.354 53.3174C182.356 52.756 181.324 52.175 180.254 51.5512C181.355 50.9286 182.443 50.3119 183.52 49.7016C189.05 46.5676 194.292 43.5967 199.599 40.789C201.081 40.0438 203.395 39.438 204.737 40.0904C209.649 42.4664 214.473 45.0417 219.528 47.74C221.807 48.9564 224.133 50.1984 226.536 51.458C225.879 51.8355 225.25 52.1961 224.645 52.5432C221.666 54.2503 219.255 55.6317 216.909 57.1418C216.03 57.7009 214.965 58.8188 214.919 59.7043C214.753 62.3424 214.777 65.0046 214.804 67.9653ZM201.573 13.5748C202.163 13.3902 202.771 13.1998 203.395 12.9758H203.441C203.973 13.18 204.516 13.3737 205.062 13.5684C206.508 14.0845 207.974 14.6076 209.319 15.3519C219.964 21.4084 230.562 27.558 241.161 33.7077C244.493 35.6178 245.419 38.2735 243.845 40.8357C242.133 43.6775 237.828 45.2617 235.329 43.8174C233.305 42.6431 231.27 41.4813 229.232 40.3183C223.346 36.959 217.444 33.5903 211.772 29.8875C205.894 26.0206 200.71 26.0672 194.833 29.8875C189.274 33.4605 183.521 36.7164 177.768 39.9731C175.569 41.2173 173.371 42.4619 171.182 43.7242C168.452 45.3083 164.009 43.6776 162.389 40.7428C160.908 38.1336 161.833 35.5713 165.212 33.6146C176.135 27.3251 187.103 21.0822 198.118 14.9326C199.156 14.3311 200.322 13.9662 201.573 13.5748ZM165.767 83.4641C159.381 80.2962 156.233 75.7307 157.159 68.5094L157.113 68.4628C157.239 67.3494 157.193 66.1924 157.151 65.1403C157.131 64.6519 157.113 64.186 157.113 63.7573C158.001 64.4199 158.853 65.1027 159.695 65.7777C161.399 67.143 163.061 68.474 164.888 69.5344C172.987 74.2864 181.133 78.852 189.325 83.3713C191.13 84.3496 191.917 85.5141 191.824 87.6108C191.733 89.7176 191.761 91.8447 191.792 94.1226C191.808 95.3205 191.824 96.5599 191.824 97.8601C191.534 97.7142 191.259 97.5766 190.995 97.445C189.995 96.9453 189.168 96.532 188.399 96.0899C186.085 94.7889 183.783 93.4619 181.482 92.1353C176.285 89.1385 171.093 86.1447 165.767 83.4641ZM248.519 74.6124C248.196 76.7557 246.668 79.3178 244.863 80.4361V80.4827C237.782 84.8482 230.577 89.0137 223.212 93.2724C220.516 94.831 217.799 96.402 215.058 98C214.379 89.5518 217.418 83.3713 224.175 79.4577C226.415 78.1533 228.67 76.8787 230.925 75.604C234.307 73.692 237.69 71.7799 241.022 69.7671C242.876 68.6086 244.598 67.2501 246.339 65.8758C247.119 65.2606 247.903 64.6421 248.705 64.0367C248.705 64.9775 248.738 65.9521 248.773 66.9467C248.859 69.4494 248.95 72.0785 248.519 74.6124Z" fill="#1C4F9D"/>
<path fill-rule="evenodd" clip-rule="evenodd" d="M1.90893 156.228C3.16481 157.384 4.7221 157.974 6.5557 157.974H32.7533V151.99H8.06275C7.1585 151.99 6.68125 151.964 6.63101 151.913C6.5557 151.861 6.5557 151.399 6.5557 150.577V135.449C6.5557 134.601 6.58082 134.164 6.63101 134.113C6.68125 134.062 7.1585 134.036 8.06275 134.036H32.7533V128.051H6.5557C4.74721 128.051 3.18993 128.642 1.90893 129.798C0.627936 130.954 0 132.366 0 134.036V151.99C0 153.659 0.627936 155.072 1.90893 156.228ZM37.5507 128V157.974H70.4296V151.99H44.1315V128H37.5507ZM73.0671 128.026V157.974V158H79.6479V136.99L91.5533 149.884L103.459 136.938V157.974H110.04V128.026H103.057L91.5533 140.534L79.9992 128.026H73.0671ZM129.883 134.01V157.974H136.414V148.111H156.105V157.974H162.737V134.01C162.737 132.341 162.109 130.928 160.802 129.772C159.497 128.616 157.939 128.026 156.156 128.026H136.439C134.63 128.026 133.073 128.616 131.792 129.772C130.511 130.928 129.883 132.341 129.883 134.01ZM156.156 142.127H136.464V135.423C136.464 134.575 136.488 134.139 136.539 134.087C136.589 134.036 137.066 134.01 137.971 134.01H154.599C155.503 134.01 156.005 134.036 156.055 134.087C156.131 134.139 156.156 134.601 156.156 135.423V142.127ZM168.061 128.026V157.949H194.36C196.168 157.949 197.7 157.358 199.006 156.202C200.287 155.046 200.941 153.634 200.941 151.964V134.01C200.941 132.341 200.312 130.928 199.006 129.772C197.7 128.616 196.143 128.026 194.36 128.026H168.061ZM192.752 151.99H176.124C175.22 151.99 174.743 151.964 174.692 151.913C174.617 151.861 174.617 151.399 174.617 150.577V135.449C174.617 134.601 174.642 134.164 174.692 134.113C174.743 134.062 175.22 134.036 176.124 134.036H192.752C193.656 134.036 194.159 134.062 194.209 134.113C194.284 134.164 194.309 134.627 194.309 135.449V150.577C194.309 151.425 194.259 151.861 194.209 151.913C194.159 151.964 193.656 151.99 192.752 151.99ZM203.452 128.026L222.491 157.974H222.516H228.168L247.157 128.026H239.571L225.329 150.526L211.088 128.026H203.452ZM250.02 128.026V157.974H256.5V128.026H250.02ZM261.775 156.228C263.056 157.384 264.588 157.974 266.397 157.974H286.164C287.947 157.974 289.48 157.384 290.786 156.228C292.092 155.072 292.745 153.659 292.745 151.99V145.954C292.745 144.31 292.092 142.897 290.786 141.741C289.455 140.586 287.922 139.995 286.164 139.995H267.954C267.05 139.995 266.547 139.969 266.497 139.918C266.422 139.866 266.397 139.404 266.397 138.582V135.423C266.397 134.575 266.447 134.139 266.497 134.087C266.547 134.036 267.05 134.01 267.954 134.01H284.532C285.461 134.01 285.963 134.036 286.013 134.087C286.089 134.139 286.089 134.601 286.089 135.423V136.553H292.745V134.01C292.745 132.341 292.092 130.928 290.786 129.772C289.455 128.616 287.922 128.026 286.164 128.026H266.397C264.588 128.026 263.056 128.616 261.775 129.772C260.494 130.928 259.866 132.341 259.866 134.01V140.046C259.866 141.69 260.494 143.103 261.775 144.259C263.056 145.414 264.588 146.005 266.397 146.005H284.532C285.461 146.005 285.963 146.031 286.013 146.082C286.089 146.134 286.089 146.596 286.089 147.418V150.577C286.089 151.425 286.064 151.861 286.013 151.913C285.963 151.964 285.486 151.99 284.532 151.99H267.954C267.05 151.99 266.547 151.964 266.497 151.913C266.422 151.861 266.397 151.399 266.397 150.577V149.447H259.866V151.99C259.866 153.659 260.494 155.072 261.775 156.228ZM299.577 156.228C300.833 157.384 302.39 157.974 304.224 157.974H323.941C325.75 157.974 327.281 157.384 328.588 156.228C329.869 155.072 330.522 153.659 330.522 151.99V134.036C330.522 132.366 329.894 130.954 328.588 129.798C327.281 128.642 325.75 128.051 323.941 128.051H304.224C302.415 128.051 300.858 128.642 299.577 129.798C298.296 130.954 297.668 132.366 297.668 134.036V151.99C297.668 153.659 298.296 155.072 299.577 156.228ZM322.358 151.99H305.731C304.827 151.99 304.35 151.964 304.299 151.913C304.224 151.861 304.224 151.399 304.224 150.577V135.449C304.224 134.601 304.249 134.164 304.299 134.113C304.35 134.062 304.827 134.036 305.731 134.036H322.358C323.263 134.036 323.765 134.062 323.815 134.113C323.891 134.164 323.916 134.627 323.916 135.449V150.577C323.916 151.425 323.866 151.861 323.815 151.913C323.765 151.964 323.263 151.99 322.358 151.99ZM335.495 128.077V157.974L335.47 158H342.051V147.983L352.148 147.931L361.416 158H368.324V156.125L360.738 147.931H361.793C363.602 147.931 365.133 147.341 366.44 146.159C367.721 144.978 368.374 143.591 368.374 141.973V134.062C368.374 132.443 367.721 131.031 366.44 129.849C365.133 128.668 363.576 128.077 361.793 128.077H335.495ZM360.21 141.921H343.583C342.679 141.921 342.201 141.896 342.151 141.844C342.076 141.793 342.076 141.33 342.076 140.509V135.423C342.076 134.601 342.101 134.164 342.151 134.113C342.201 134.062 342.679 134.062 343.583 134.062H360.21C361.115 134.062 361.618 134.062 361.667 134.113C361.743 134.164 361.768 134.601 361.768 135.423V140.509C361.768 141.356 361.718 141.793 361.667 141.844C361.618 141.896 361.115 141.921 360.21 141.921ZM375.03 156.228C376.311 157.384 377.844 157.974 379.652 157.974H399.419C401.202 157.974 402.735 157.384 404.041 156.228C405.347 155.072 406 153.659 406 151.99V145.954C406 144.31 405.347 142.897 404.041 141.741C402.71 140.586 401.177 139.995 399.419 139.995H381.209C380.305 139.995 379.802 139.969 379.752 139.918C379.677 139.866 379.652 139.404 379.652 138.582V135.423C379.652 134.575 379.702 134.139 379.752 134.087C379.802 134.036 380.305 134.01 381.209 134.01H397.787C398.716 134.01 399.218 134.036 399.269 134.087C399.344 134.139 399.344 134.601 399.344 135.423V136.553H406V134.01C406 132.341 405.347 130.928 404.041 129.772C402.71 128.616 401.177 128.026 399.419 128.026H379.652C377.844 128.026 376.311 128.616 375.03 129.772C373.749 130.928 373.121 132.341 373.121 134.01V140.046C373.121 141.69 373.749 143.103 375.03 144.259C376.311 145.414 377.844 146.005 379.652 146.005H397.787C398.716 146.005 399.218 146.031 399.269 146.082C399.344 146.134 399.344 146.596 399.344 147.418V150.577C399.344 151.425 399.319 151.861 399.269 151.913C399.218 151.964 398.741 151.99 397.787 151.99H381.209C380.305 151.99 379.802 151.964 379.752 151.913C379.677 151.861 379.652 151.399 379.652 150.577V149.447H373.121V151.99C373.121 153.659 373.749 155.072 375.03 156.228Z" fill="#1C4F9D"/>
</svg>
