<svg width="406" height="322" viewBox="0 0 406 322" fill="none" xmlns="http://www.w3.org/2000/svg">
<path fill-rule="evenodd" clip-rule="evenodd" d="M234.064 181.253C234.093 184.363 234.122 187.598 234.122 191.001H234.246C242.1 186.392 249.852 181.903 257.51 177.468C277.846 165.692 297.517 154.301 316.666 142.06C321.493 139.087 324.215 130.166 324.834 123.723C325.71 114.075 325.532 104.303 325.353 94.4946C325.279 90.447 325.205 86.3933 325.205 82.3396C325.205 72.5513 321.245 64.8694 312.706 59.9133C280.53 41.2042 248.23 22.6189 215.931 4.15755C207.763 -0.550722 199.348 -0.798522 191.18 3.90974L191.16 3.92096C158.496 22.5025 125.831 41.084 93.2906 59.6655C84.0091 64.8694 80.1727 73.1708 80.1727 83.7025C80.4202 95.9688 80.5439 108.111 80.1727 120.377C79.9252 132.52 84.8754 141.317 95.5182 147.14L146.752 175.761C153.743 179.627 160.646 183.58 168.352 187.993C169.785 188.814 171.246 189.651 172.741 190.506C172.741 187.398 172.784 184.42 172.825 181.54C172.925 174.658 173.016 168.334 172.493 162.132C172.122 158.663 169.77 154.45 166.924 152.468C161.673 148.848 156.063 145.708 149.968 142.297C147.301 140.804 144.541 139.259 141.678 137.6C144.623 135.944 147.532 134.304 150.412 132.681C165.199 124.346 179.217 116.445 193.407 108.978C197.368 106.996 203.555 105.385 207.144 107.12C220.279 113.439 233.179 120.288 246.694 127.464C252.789 130.699 259.009 134.002 265.432 137.352C263.676 138.356 261.995 139.315 260.376 140.238C252.41 144.778 245.965 148.452 239.691 152.468C237.34 153.955 234.494 156.928 234.37 159.283C233.926 166.299 233.991 173.379 234.064 181.253ZM198.685 36.6021C200.262 36.1112 201.889 35.6047 203.555 35.0091H203.679C205.103 35.552 206.554 36.0671 208.013 36.5849C211.881 37.9575 215.801 39.3488 219.396 41.3281C247.859 57.4353 276.199 73.7903 304.538 90.1454C313.449 95.2253 315.924 102.288 311.716 109.102C307.137 116.66 295.628 120.873 288.945 117.032C283.534 113.909 278.091 110.819 272.642 107.726C256.904 98.7921 241.122 89.8331 225.955 79.9854C210.238 69.7016 196.378 69.8255 180.661 79.9854C165.798 89.4878 150.416 98.1469 135.032 106.808C129.153 110.117 123.273 113.427 117.423 116.784C110.121 120.997 98.2408 116.66 93.9094 108.855C89.9493 101.916 92.4243 95.1014 101.458 89.8976C130.664 73.1708 159.994 56.568 189.447 40.213C192.222 38.6133 195.34 37.6429 198.685 36.6021ZM102.943 222.472C85.8654 214.047 77.4501 201.905 79.9252 182.7L79.8014 182.576C80.1394 179.615 80.0158 176.538 79.9034 173.74C79.8512 172.441 79.8014 171.202 79.8014 170.062C82.1754 171.824 84.4546 173.64 86.7063 175.435C91.2624 179.066 95.7056 182.606 100.592 185.426C122.249 198.064 144.03 210.206 165.934 222.225C170.76 224.827 172.864 227.924 172.617 233.5C172.373 239.103 172.449 244.76 172.53 250.818C172.573 254.004 172.617 257.3 172.617 260.758C171.842 260.37 171.105 260.004 170.4 259.654C167.727 258.325 165.516 257.226 163.459 256.05C157.27 252.59 151.115 249.061 144.964 245.533C131.066 237.563 117.183 229.601 102.943 222.472ZM324.215 198.931C323.349 204.631 319.265 211.445 314.439 214.419V214.543C295.505 226.153 276.239 237.231 256.544 248.557C249.336 252.702 242.07 256.88 234.741 261.13C232.926 238.662 241.053 222.225 259.121 211.817C265.11 208.348 271.14 204.958 277.169 201.568C286.213 196.483 295.257 191.398 304.167 186.045C309.125 182.964 313.729 179.351 318.386 175.696C320.471 174.06 322.567 172.415 324.71 170.805C324.71 173.307 324.8 175.899 324.892 178.544C325.123 185.2 325.366 192.192 324.215 198.931Z" fill="#1C4F9D"/>
<path fill-rule="evenodd" clip-rule="evenodd" d="M1.90893 320.228C3.16481 321.384 4.7221 321.974 6.5557 321.974H32.7533V315.99H8.06275C7.1585 315.99 6.68125 315.964 6.63101 315.913C6.5557 315.861 6.5557 315.399 6.5557 314.577V299.449C6.5557 298.601 6.58082 298.164 6.63101 298.113C6.68125 298.062 7.1585 298.036 8.06275 298.036H32.7533V292.051H6.5557C4.74721 292.051 3.18993 292.642 1.90893 293.798C0.627936 294.954 0 296.366 0 298.036V315.99C0 317.659 0.627936 319.072 1.90893 320.228ZM37.5507 292V321.974H70.4296V315.99H44.1315V292H37.5507ZM73.0671 292.026V321.974V322H79.6479V300.99L91.5533 313.884L103.459 300.938V321.974H110.04V292.026H103.057L91.5533 304.534L79.9992 292.026H73.0671ZM129.883 298.01V321.974H136.414V312.111H156.105V321.974H162.737V298.01C162.737 296.341 162.109 294.928 160.802 293.772C159.497 292.616 157.939 292.026 156.156 292.026H136.439C134.63 292.026 133.073 292.616 131.792 293.772C130.511 294.928 129.883 296.341 129.883 298.01ZM156.156 306.127H136.464V299.423C136.464 298.575 136.488 298.139 136.539 298.087C136.589 298.036 137.066 298.01 137.971 298.01H154.599C155.503 298.01 156.005 298.036 156.055 298.087C156.131 298.139 156.156 298.601 156.156 299.423V306.127ZM168.061 292.026V321.949H194.36C196.168 321.949 197.7 321.358 199.006 320.202C200.287 319.046 200.941 317.634 200.941 315.964V298.01C200.941 296.341 200.312 294.928 199.006 293.772C197.7 292.616 196.143 292.026 194.36 292.026H168.061ZM192.752 315.99H176.124C175.22 315.99 174.743 315.964 174.692 315.913C174.617 315.861 174.617 315.399 174.617 314.577V299.449C174.617 298.601 174.642 298.164 174.692 298.113C174.743 298.062 175.22 298.036 176.124 298.036H192.752C193.656 298.036 194.159 298.062 194.209 298.113C194.284 298.164 194.309 298.627 194.309 299.449V314.577C194.309 315.425 194.259 315.861 194.209 315.913C194.159 315.964 193.656 315.99 192.752 315.99ZM203.452 292.026L222.491 321.974H222.516H228.168L247.157 292.026H239.571L225.329 314.526L211.088 292.026H203.452ZM250.02 292.026V321.974H256.5V292.026H250.02ZM261.775 320.228C263.056 321.384 264.588 321.974 266.397 321.974H286.164C287.947 321.974 289.48 321.384 290.786 320.228C292.092 319.072 292.745 317.659 292.745 315.99V309.954C292.745 308.31 292.092 306.897 290.786 305.741C289.455 304.586 287.922 303.995 286.164 303.995H267.954C267.05 303.995 266.547 303.969 266.497 303.918C266.422 303.866 266.397 303.404 266.397 302.582V299.423C266.397 298.575 266.447 298.139 266.497 298.087C266.547 298.036 267.05 298.01 267.954 298.01H284.532C285.461 298.01 285.963 298.036 286.013 298.087C286.089 298.139 286.089 298.601 286.089 299.423V300.553H292.745V298.01C292.745 296.341 292.092 294.928 290.786 293.772C289.455 292.616 287.922 292.026 286.164 292.026H266.397C264.588 292.026 263.056 292.616 261.775 293.772C260.494 294.928 259.866 296.341 259.866 298.01V304.046C259.866 305.69 260.494 307.103 261.775 308.259C263.056 309.414 264.588 310.005 266.397 310.005H284.532C285.461 310.005 285.963 310.031 286.013 310.082C286.089 310.134 286.089 310.596 286.089 311.418V314.577C286.089 315.425 286.064 315.861 286.013 315.913C285.963 315.964 285.486 315.99 284.532 315.99H267.954C267.05 315.99 266.547 315.964 266.497 315.913C266.422 315.861 266.397 315.399 266.397 314.577V313.447H259.866V315.99C259.866 317.659 260.494 319.072 261.775 320.228ZM299.577 320.228C300.833 321.384 302.39 321.974 304.224 321.974H323.941C325.75 321.974 327.281 321.384 328.588 320.228C329.869 319.072 330.522 317.659 330.522 315.99V298.036C330.522 296.366 329.894 294.954 328.588 293.798C327.281 292.642 325.75 292.051 323.941 292.051H304.224C302.415 292.051 300.858 292.642 299.577 293.798C298.296 294.954 297.668 296.366 297.668 298.036V315.99C297.668 317.659 298.296 319.072 299.577 320.228ZM322.358 315.99H305.731C304.827 315.99 304.35 315.964 304.299 315.913C304.224 315.861 304.224 315.399 304.224 314.577V299.449C304.224 298.601 304.249 298.164 304.299 298.113C304.35 298.062 304.827 298.036 305.731 298.036H322.358C323.263 298.036 323.765 298.062 323.815 298.113C323.891 298.164 323.916 298.627 323.916 299.449V314.577C323.916 315.425 323.866 315.861 323.815 315.913C323.765 315.964 323.263 315.99 322.358 315.99ZM335.495 292.077V321.974L335.47 322H342.051V311.983L352.148 311.931L361.416 322H368.324V320.125L360.738 311.931H361.793C363.602 311.931 365.133 311.341 366.44 310.159C367.721 308.978 368.374 307.591 368.374 305.973V298.062C368.374 296.443 367.721 295.031 366.44 293.849C365.133 292.668 363.576 292.077 361.793 292.077H335.495ZM360.21 305.921H343.583C342.679 305.921 342.201 305.896 342.151 305.844C342.076 305.793 342.076 305.33 342.076 304.509V299.423C342.076 298.601 342.101 298.164 342.151 298.113C342.201 298.062 342.679 298.062 343.583 298.062H360.21C361.115 298.062 361.618 298.062 361.667 298.113C361.743 298.164 361.768 298.601 361.768 299.423V304.509C361.768 305.356 361.718 305.793 361.667 305.844C361.618 305.896 361.115 305.921 360.21 305.921ZM375.03 320.228C376.311 321.384 377.844 321.974 379.652 321.974H399.419C401.202 321.974 402.735 321.384 404.041 320.228C405.347 319.072 406 317.659 406 315.99V309.954C406 308.31 405.347 306.897 404.041 305.741C402.71 304.586 401.177 303.995 399.419 303.995H381.209C380.305 303.995 379.802 303.969 379.752 303.918C379.677 303.866 379.652 303.404 379.652 302.582V299.423C379.652 298.575 379.702 298.139 379.752 298.087C379.802 298.036 380.305 298.01 381.209 298.01H397.787C398.716 298.01 399.218 298.036 399.269 298.087C399.344 298.139 399.344 298.601 399.344 299.423V300.553H406V298.01C406 296.341 405.347 294.928 404.041 293.772C402.71 292.616 401.177 292.026 399.419 292.026H379.652C377.844 292.026 376.311 292.616 375.03 293.772C373.749 294.928 373.121 296.341 373.121 298.01V304.046C373.121 305.69 373.749 307.103 375.03 308.259C376.311 309.414 377.844 310.005 379.652 310.005H397.787C398.716 310.005 399.218 310.031 399.269 310.082C399.344 310.134 399.344 310.596 399.344 311.418V314.577C399.344 315.425 399.319 315.861 399.269 315.913C399.218 315.964 398.741 315.99 397.787 315.99H381.209C380.305 315.99 379.802 315.964 379.752 315.913C379.677 315.861 379.652 315.399 379.652 314.577V313.447H373.121V315.99C373.121 317.659 373.749 319.072 375.03 320.228Z" fill="#1C4F9D"/>
</svg>
